<svg width="54" height="54" viewBox="0 0 54 54" fill="none" xmlns="http://www.w3.org/2000/svg">
<rect width="54" height="54" rx="5" fill="#B0C4DE"/>
<path d="M16.2929 38.7071C16.6834 39.0976 17.3166 39.0976 17.7071 38.7071L24.0711 32.3432C24.4616 31.9526 24.4616 31.3195 24.0711 30.9289C23.6805 30.5384 23.0474 30.5384 22.6569 30.9289L17 36.5858L11.3431 30.9289C10.9526 30.5384 10.3195 30.5384 9.92893 30.9289C9.53841 31.3195 9.53841 31.9526 9.92893 32.3432L16.2929 38.7071ZM16 16.4094L16 38L18 38L18 16.4094L16 16.4094Z" fill="black"/>
<path d="M38.1238 15.7023C37.7333 15.3117 37.1001 15.3117 36.7096 15.7023L30.3456 22.0662C29.9551 22.4567 29.9551 23.0899 30.3456 23.4804C30.7361 23.8709 31.3693 23.8709 31.7598 23.4804L37.4167 17.8236L43.0735 23.4804C43.4641 23.8709 44.0972 23.8709 44.4878 23.4804C44.8783 23.0899 44.8783 22.4567 44.4878 22.0662L38.1238 15.7023ZM38.4167 38V16.4094H36.4167V38H38.4167Z" fill="black"/>
</svg>
